<mxfile host="app.diagrams.net" modified="2022-06-03T14:11:56.233Z" agent="5.0 (Macintosh; Intel Mac OS X 10_15_7) AppleWebKit/537.36 (KHTML, like Gecko) Chrome/102.0.5005.61 Safari/537.36" etag="DuAgnylEwYjNKdC8HgZ1" version="17.1.3" type="github">
  <diagram id="5Zsco1YX727TiJmq44mr" name="Page-1">
    <mxGraphModel dx="505" dy="328" grid="1" gridSize="10" guides="1" tooltips="1" connect="1" arrows="1" fold="1" page="1" pageScale="1" pageWidth="1169" pageHeight="827" math="0" shadow="0">
      <root>
        <mxCell id="0" />
        <mxCell id="1" parent="0" />
        <mxCell id="yT5tHZYqJuS_XLaNGveo-1" value="" style="endArrow=none;html=1;rounded=0;" edge="1" parent="1">
          <mxGeometry width="50" height="50" relative="1" as="geometry">
            <mxPoint x="300" y="360" as="sourcePoint" />
            <mxPoint x="710" y="360" as="targetPoint" />
          </mxGeometry>
        </mxCell>
        <mxCell id="yT5tHZYqJuS_XLaNGveo-4" value="&lt;font face=&quot;宋体-简&quot; style=&quot;font-size: 12px&quot;&gt;用户空间&lt;/font&gt;" style="text;strokeColor=none;fillColor=none;html=1;fontSize=24;fontStyle=1;verticalAlign=middle;align=center;" vertex="1" parent="1">
          <mxGeometry x="330" y="330" width="20" as="geometry" />
        </mxCell>
        <mxCell id="yT5tHZYqJuS_XLaNGveo-5" value="&lt;font face=&quot;宋体-简&quot; style=&quot;font-size: 12px&quot;&gt;内核空间&lt;/font&gt;" style="text;strokeColor=none;fillColor=none;html=1;fontSize=24;fontStyle=1;verticalAlign=middle;align=center;" vertex="1" parent="1">
          <mxGeometry x="330" y="380" width="20" as="geometry" />
        </mxCell>
        <mxCell id="yT5tHZYqJuS_XLaNGveo-13" value="&lt;font face=&quot;Times New Roman&quot; style=&quot;font-size: 12px&quot;&gt;sigalarm(n, fn)&lt;/font&gt;" style="edgeStyle=orthogonalEdgeStyle;rounded=0;orthogonalLoop=1;jettySize=auto;html=1;fontFamily=宋体-简;fontSize=18;entryX=0.5;entryY=0;entryDx=0;entryDy=0;" edge="1" parent="1" source="yT5tHZYqJuS_XLaNGveo-7" target="yT5tHZYqJuS_XLaNGveo-16">
          <mxGeometry x="-0.5" relative="1" as="geometry">
            <mxPoint x="420" y="400" as="targetPoint" />
            <mxPoint as="offset" />
          </mxGeometry>
        </mxCell>
        <mxCell id="yT5tHZYqJuS_XLaNGveo-7" value="&lt;div&gt;&lt;span style=&quot;font-size: 11px ; line-height: 1.2&quot;&gt;用户程序&lt;/span&gt;&lt;/div&gt;" style="rounded=0;whiteSpace=wrap;html=1;fontFamily=宋体-简;fontSize=18;verticalAlign=bottom;align=center;horizontal=1;" vertex="1" parent="1">
          <mxGeometry x="390" y="290" width="60" height="20" as="geometry" />
        </mxCell>
        <mxCell id="yT5tHZYqJuS_XLaNGveo-15" value="&lt;font style=&quot;font-size: 12px ; line-height: 1&quot;&gt;&lt;font face=&quot;宋体-简&quot; style=&quot;font-size: 12px&quot;&gt;经过&lt;/font&gt;n&lt;font face=&quot;宋体-简&quot; style=&quot;font-size: 12px&quot;&gt;个计时器中断&lt;/font&gt;&lt;/font&gt;" style="endArrow=classic;dashed=1;html=1;rounded=0;fontFamily=Times New Roman;fontSize=18;startArrow=none;startFill=0;endFill=1;verticalAlign=middle;spacing=0;align=center;" edge="1" parent="1">
          <mxGeometry x="-0.0667" y="10" width="50" height="50" relative="1" as="geometry">
            <mxPoint x="450" y="250" as="sourcePoint" />
            <mxPoint x="600" y="250" as="targetPoint" />
            <mxPoint as="offset" />
          </mxGeometry>
        </mxCell>
        <mxCell id="yT5tHZYqJuS_XLaNGveo-16" value="&lt;div&gt;&lt;span style=&quot;font-size: 11px ; line-height: 1.2&quot;&gt;内核&lt;/span&gt;&lt;/div&gt;" style="rounded=0;whiteSpace=wrap;html=1;fontFamily=宋体-简;fontSize=18;verticalAlign=bottom;align=center;horizontal=1;" vertex="1" parent="1">
          <mxGeometry x="390" y="404" width="60" height="20" as="geometry" />
        </mxCell>
      </root>
    </mxGraphModel>
  </diagram>
</mxfile>
